<svg xmlns="http://www.w3.org/2000/svg" width="104.292" height="27.648" viewBox="0 0 104.292 27.648">
  <path id="ishop" d="M4.464-22.932A2.155,2.155,0,0,1,2.88-23.58a2.155,2.155,0,0,1-.648-1.584,2.155,2.155,0,0,1,.648-1.584A2.155,2.155,0,0,1,4.464-27.4a2.054,2.054,0,0,1,1.53.648,2.186,2.186,0,0,1,.63,1.584,2.186,2.186,0,0,1-.63,1.584A2.054,2.054,0,0,1,4.464-22.932Zm1.584,3.2V0H2.772V-19.728ZM20.232.252a11.935,11.935,0,0,1-4.734-.9,7.773,7.773,0,0,1-3.33-2.592,6.825,6.825,0,0,1-1.26-4h5.4a3.492,3.492,0,0,0,1.1,2.448,3.89,3.89,0,0,0,2.718.9A4.181,4.181,0,0,0,22.9-4.734,2.751,2.751,0,0,0,23.9-6.948a2.558,2.558,0,0,0-.684-1.836,4.793,4.793,0,0,0-1.71-1.134,28.3,28.3,0,0,0-2.826-.918,30.266,30.266,0,0,1-3.978-1.422,6.968,6.968,0,0,1-2.628-2.124,6.053,6.053,0,0,1-1.1-3.8A6.791,6.791,0,0,1,12.1-22.068a7.1,7.1,0,0,1,3.132-2.538,11.4,11.4,0,0,1,4.608-.882,10,10,0,0,1,6.318,1.89,7.007,7.007,0,0,1,2.682,5.274H23.292a2.88,2.88,0,0,0-1.1-2.142,4.137,4.137,0,0,0-2.718-.846,3.5,3.5,0,0,0-2.358.756,2.733,2.733,0,0,0-.882,2.2,2.27,2.27,0,0,0,.666,1.674,5.079,5.079,0,0,0,1.656,1.08q.99.414,2.79.954a29.311,29.311,0,0,1,4,1.44,7.176,7.176,0,0,1,2.664,2.16,6,6,0,0,1,1.116,3.78A7.11,7.11,0,0,1,28.08-3.528,7.37,7.37,0,0,1,25.02-.774,10.437,10.437,0,0,1,20.232.252ZM54.54-25.128V0H49.5V-10.692H38.736V0H33.7V-25.128h5.04V-14.8H49.5V-25.128ZM71.388.252A13.019,13.019,0,0,1,64.908-1.4a12.363,12.363,0,0,1-4.68-4.59A12.84,12.84,0,0,1,58.5-12.636a12.771,12.771,0,0,1,1.728-6.606,12.363,12.363,0,0,1,4.68-4.59,13.019,13.019,0,0,1,6.48-1.656,12.99,12.99,0,0,1,6.5,1.656,12.269,12.269,0,0,1,4.644,4.59,12.875,12.875,0,0,1,1.71,6.606,12.945,12.945,0,0,1-1.71,6.642A12.232,12.232,0,0,1,77.868-1.4,13.019,13.019,0,0,1,71.388.252Zm0-4.5a7.678,7.678,0,0,0,4-1.026,7.033,7.033,0,0,0,2.7-2.934,9.627,9.627,0,0,0,.972-4.428,9.516,9.516,0,0,0-.972-4.41,6.938,6.938,0,0,0-2.7-2.9,7.785,7.785,0,0,0-4-1.008,7.883,7.883,0,0,0-4.014,1.008,6.9,6.9,0,0,0-2.718,2.9,9.516,9.516,0,0,0-.972,4.41,9.627,9.627,0,0,0,.972,4.428,7,7,0,0,0,2.718,2.934A7.774,7.774,0,0,0,71.388-4.248Zm35.136-13.1a7.825,7.825,0,0,1-.954,3.78,7.007,7.007,0,0,1-2.988,2.844,10.869,10.869,0,0,1-5.13,1.08H93.24V0H88.2V-25.128h9.252a11.181,11.181,0,0,1,4.968,1.008,7.022,7.022,0,0,1,3.078,2.772A7.8,7.8,0,0,1,106.524-17.352Zm-9.288,3.636a4.368,4.368,0,0,0,3.1-.954,3.515,3.515,0,0,0,1.008-2.682q0-3.672-4.1-3.672h-4v7.308Z" transform="translate(-2.232 27.396)" fill="#c1c8ce"/>
</svg>
